<?xml version="1.0" encoding="UTF-8" standalone="no"?>
<!DOCTYPE svg PUBLIC "-//W3C//DTD SVG 1.1//EN"
 "http://www.w3.org/Graphics/SVG/1.1/DTD/svg11.dtd">
<!-- Generated by graphviz version 12.2.1 (20241206.2353)
 -->
<!-- Title: aoc Pages: 1 -->
<svg width="143pt" height="332pt"
 viewBox="0.00 0.00 143.40 332.00" xmlns="http://www.w3.org/2000/svg" xmlns:xlink="http://www.w3.org/1999/xlink">
<g id="graph0" class="graph" transform="scale(1 1) rotate(0) translate(4 328)">
<title>aoc</title>
<polygon fill="white" stroke="none" points="-4,4 -4,-328 139.4,-328 139.4,4 -4,4"/>
<!-- broadcaster -->
<g id="node1" class="node">
<title>broadcaster</title>
<ellipse fill="none" stroke="black" cx="82" cy="-306" rx="53.4" ry="18"/>
<text text-anchor="middle" x="82" y="-300.95" font-family="Times,serif" font-size="14.00">broadcaster</text>
</g>
<!-- a% -->
<g id="node2" class="node">
<title>a%</title>
<ellipse fill="none" stroke="black" cx="27" cy="-234" rx="27" ry="18"/>
<text text-anchor="middle" x="27" y="-228.95" font-family="Times,serif" font-size="14.00">a%</text>
</g>
<!-- broadcaster&#45;&gt;a% -->
<g id="edge1" class="edge">
<title>broadcaster&#45;&gt;a%</title>
<path fill="none" stroke="black" d="M68.97,-288.41C62.2,-279.8 53.8,-269.11 46.3,-259.56"/>
<polygon fill="black" stroke="black" points="49.05,-257.4 40.12,-251.7 43.55,-261.73 49.05,-257.4"/>
</g>
<!-- b% -->
<g id="node3" class="node">
<title>b%</title>
<ellipse fill="none" stroke="black" cx="73" cy="-162" rx="27" ry="18"/>
<text text-anchor="middle" x="73" y="-156.95" font-family="Times,serif" font-size="14.00">b%</text>
</g>
<!-- broadcaster&#45;&gt;b% -->
<g id="edge2" class="edge">
<title>broadcaster&#45;&gt;b%</title>
<path fill="none" stroke="black" d="M80.9,-287.59C79.38,-263.61 76.62,-220.14 74.8,-191.42"/>
<polygon fill="black" stroke="black" points="78.31,-191.38 74.18,-181.62 71.32,-191.82 78.31,-191.38"/>
</g>
<!-- c% -->
<g id="node4" class="node">
<title>c%</title>
<ellipse fill="none" stroke="black" cx="73" cy="-90" rx="27" ry="18"/>
<text text-anchor="middle" x="73" y="-84.95" font-family="Times,serif" font-size="14.00">c%</text>
</g>
<!-- broadcaster&#45;&gt;c% -->
<g id="edge3" class="edge">
<title>broadcaster&#45;&gt;c%</title>
<path fill="none" stroke="black" d="M90.02,-287.74C102.76,-257.88 124.66,-194.93 109,-144 105.82,-133.65 99.85,-123.51 93.67,-114.91"/>
<polygon fill="black" stroke="black" points="96.55,-112.91 87.67,-107.13 91.01,-117.19 96.55,-112.91"/>
</g>
<!-- a%&#45;&gt;b% -->
<g id="edge4" class="edge">
<title>a%&#45;&gt;b%</title>
<path fill="none" stroke="black" d="M37.44,-217.12C43.03,-208.61 50.04,-197.94 56.36,-188.32"/>
<polygon fill="black" stroke="black" points="59.21,-190.37 61.77,-180.09 53.36,-186.52 59.21,-190.37"/>
</g>
<!-- b%&#45;&gt;c% -->
<g id="edge5" class="edge">
<title>b%&#45;&gt;c%</title>
<path fill="none" stroke="black" d="M73,-143.7C73,-136.41 73,-127.73 73,-119.54"/>
<polygon fill="black" stroke="black" points="76.5,-119.62 73,-109.62 69.5,-119.62 76.5,-119.62"/>
</g>
<!-- inv&amp; -->
<g id="node5" class="node">
<title>inv&amp;</title>
<ellipse fill="none" stroke="black" cx="45" cy="-18" rx="30.37" ry="18"/>
<text text-anchor="middle" x="45" y="-12.95" font-family="Times,serif" font-size="14.00">inv&amp;</text>
</g>
<!-- c%&#45;&gt;inv&amp; -->
<g id="edge6" class="edge">
<title>c%&#45;&gt;inv&amp;</title>
<path fill="none" stroke="black" d="M66.36,-72.41C63.27,-64.68 59.51,-55.27 56.01,-46.52"/>
<polygon fill="black" stroke="black" points="59.31,-45.35 52.34,-37.36 52.81,-47.95 59.31,-45.35"/>
</g>
<!-- inv&amp;&#45;&gt;a% -->
<g id="edge7" class="edge">
<title>inv&amp;&#45;&gt;a%</title>
<path fill="none" stroke="black" d="M42.02,-36.14C40.32,-46.49 38.28,-59.97 37,-72 32.09,-118.18 29.35,-172.08 28.02,-204.33"/>
<polygon fill="black" stroke="black" points="24.53,-203.92 27.64,-214.05 31.53,-204.2 24.53,-203.92"/>
</g>
</g>
</svg>
