<?xml version="1.0" encoding="UTF-8" standalone="no"?>
<!DOCTYPE svg PUBLIC "-//W3C//DTD SVG 1.1//EN"
 "http://www.w3.org/Graphics/SVG/1.1/DTD/svg11.dtd">
<!-- Generated by graphviz version 12.2.1 (20241206.2353)
 -->
<!-- Title: aoc Pages: 1 -->
<svg width="121pt" height="404pt"
 viewBox="0.00 0.00 120.77 404.00" xmlns="http://www.w3.org/2000/svg" xmlns:xlink="http://www.w3.org/1999/xlink">
<g id="graph0" class="graph" transform="scale(1 1) rotate(0) translate(4 400)">
<title>aoc</title>
<polygon fill="white" stroke="none" points="-4,4 -4,-400 116.77,-400 116.77,4 -4,4"/>
<!-- broadcaster -->
<g id="node1" class="node">
<title>broadcaster</title>
<ellipse fill="none" stroke="black" cx="59.37" cy="-378" rx="53.4" ry="18"/>
<text text-anchor="middle" x="59.37" y="-372.95" font-family="Times,serif" font-size="14.00">broadcaster</text>
</g>
<!-- a% -->
<g id="node2" class="node">
<title>a%</title>
<ellipse fill="none" stroke="black" cx="59.37" cy="-306" rx="27" ry="18"/>
<text text-anchor="middle" x="59.37" y="-300.95" font-family="Times,serif" font-size="14.00">a%</text>
</g>
<!-- broadcaster&#45;&gt;a% -->
<g id="edge1" class="edge">
<title>broadcaster&#45;&gt;a%</title>
<path fill="none" stroke="black" d="M59.37,-359.7C59.37,-352.41 59.37,-343.73 59.37,-335.54"/>
<polygon fill="black" stroke="black" points="62.87,-335.62 59.37,-325.62 55.87,-335.62 62.87,-335.62"/>
</g>
<!-- inv&amp; -->
<g id="node3" class="node">
<title>inv&amp;</title>
<ellipse fill="none" stroke="black" cx="30.37" cy="-234" rx="30.37" ry="18"/>
<text text-anchor="middle" x="30.37" y="-228.95" font-family="Times,serif" font-size="14.00">inv&amp;</text>
</g>
<!-- a%&#45;&gt;inv&amp; -->
<g id="edge2" class="edge">
<title>a%&#45;&gt;inv&amp;</title>
<path fill="none" stroke="black" d="M52.49,-288.41C49.29,-280.68 45.39,-271.27 41.77,-262.52"/>
<polygon fill="black" stroke="black" points="45.03,-261.25 37.97,-253.35 38.57,-263.93 45.03,-261.25"/>
</g>
<!-- con&amp; -->
<g id="node4" class="node">
<title>con&amp;</title>
<ellipse fill="none" stroke="black" cx="59.37" cy="-90" rx="31.9" ry="18"/>
<text text-anchor="middle" x="59.37" y="-84.95" font-family="Times,serif" font-size="14.00">con&amp;</text>
</g>
<!-- a%&#45;&gt;con&amp; -->
<g id="edge3" class="edge">
<title>a%&#45;&gt;con&amp;</title>
<path fill="none" stroke="black" d="M63.43,-287.93C65.67,-277.6 68.23,-264.12 69.37,-252 71.26,-231.76 68.04,-151.6 67.37,-144 66.65,-136 65.51,-127.37 64.31,-119.44"/>
<polygon fill="black" stroke="black" points="67.78,-118.93 62.73,-109.62 60.87,-120.05 67.78,-118.93"/>
</g>
<!-- b% -->
<g id="node5" class="node">
<title>b%</title>
<ellipse fill="none" stroke="black" cx="31.37" cy="-162" rx="27" ry="18"/>
<text text-anchor="middle" x="31.37" y="-156.95" font-family="Times,serif" font-size="14.00">b%</text>
</g>
<!-- inv&amp;&#45;&gt;b% -->
<g id="edge6" class="edge">
<title>inv&amp;&#45;&gt;b%</title>
<path fill="none" stroke="black" d="M30.61,-215.7C30.72,-208.41 30.84,-199.73 30.96,-191.54"/>
<polygon fill="black" stroke="black" points="34.46,-191.67 31.1,-181.62 27.46,-191.57 34.46,-191.67"/>
</g>
<!-- output? -->
<g id="node6" class="node">
<title>output?</title>
<ellipse fill="none" stroke="black" cx="59.37" cy="-18" rx="38.56" ry="18"/>
<text text-anchor="middle" x="59.37" y="-12.95" font-family="Times,serif" font-size="14.00">output?</text>
</g>
<!-- con&amp;&#45;&gt;output? -->
<g id="edge5" class="edge">
<title>con&amp;&#45;&gt;output?</title>
<path fill="none" stroke="black" d="M59.37,-71.7C59.37,-64.41 59.37,-55.73 59.37,-47.54"/>
<polygon fill="black" stroke="black" points="62.87,-47.62 59.37,-37.62 55.87,-47.62 62.87,-47.62"/>
</g>
<!-- b%&#45;&gt;con&amp; -->
<g id="edge4" class="edge">
<title>b%&#45;&gt;con&amp;</title>
<path fill="none" stroke="black" d="M38,-144.41C41.1,-136.68 44.86,-127.27 48.36,-118.52"/>
<polygon fill="black" stroke="black" points="51.56,-119.95 52.02,-109.36 45.06,-117.35 51.56,-119.95"/>
</g>
</g>
</svg>
